<?xml version="1.0" encoding="utf-8"?>
<!-- Generator: Adobe Illustrator 19.0.0, SVG Export Plug-In . SVG Version: 6.00 Build 0)  -->
<svg version="1.1" xmlns="http://www.w3.org/2000/svg" xmlns:xlink="http://www.w3.org/1999/xlink" x="0px" y="0px"
	 viewBox="0 0 500 500" style="enable-background:new 0 0 500 500;" xml:space="preserve">
<style type="text/css">
	.st0{display:none;fill:#A7E0F9;}
	.st1{fill:#A7E0F9;}
	.st2{opacity:0.75;fill:none;stroke:#FFFFFF;stroke-width:18;stroke-linecap:round;stroke-miterlimit:10;}
	.st3{fill:#F04E4E;stroke:#D63F3E;stroke-width:10;stroke-miterlimit:10;}
	.st4{fill:none;stroke:#D63F3E;stroke-width:10;stroke-miterlimit:10;}
	.st5{fill:none;stroke:#333333;stroke-width:18;stroke-miterlimit:10;}
</style>
<g id="Layer_3">
	<path id="XMLID_2_" class="st0" d="M514,208.4c0,0,3-208.4,0-237.4H-26c-5.9,22,0,219.4,0,219.4L514,208.4z"/>
	<circle id="XMLID_3_" class="st1" cx="248.6" cy="250.6" r="237.6"/>
</g>
<g id="Layer_4">
	<path id="XMLID_12_" class="st2" d="M276.3,50.9c36.2,5,69.3,19.5,96.8,40.9"/>
</g>
<g id="Layer_1">
	<path id="XMLID_1_" class="st3" d="M257,487.2C317.7,485,384.3,450,414.8,420c29.8-29.4,60.2-82.3,65.6-113c5.8-32.9,4.6-84,4.6-84
		s-44-19.8-82-19.5c-42.7,0.4-86.7,18.9-135,17.9c-45.9-0.9-143.1-45-189-45c-51.3,0-59.3,13.9-59.3,13.9s-7.2,30.9-6.6,71.7
		c0.4,24,14.4,71.9,19.9,83.6c7.9,16.7,36.1,54.3,50.2,71.3c30.4,36.7,92.4,59.3,92.4,59.3S236.5,487.9,257,487.2z"/>
</g>
<g id="Layer_2">
	<polygon id="XMLID_4_" class="st4" points="74.3,277 53,240.5 74.3,204 117,204 138.3,240.5 117,277 	"/>
	<polygon id="XMLID_6_" class="st4" points="177,350 155.7,313.5 177,277 219.6,277 241,313.5 219.6,350 	"/>
	<polygon id="XMLID_7_" class="st4" points="380.5,307 359.2,270 380.5,233 423.2,233 444.5,270 423.2,307 	"/>
	<polygon id="XMLID_8_" class="st4" points="309,435 287.7,398.5 309,362 351.7,362 373,398.5 351.7,435 	"/>
	<polygon id="XMLID_9_" class="st4" points="278.3,303 263.7,277.5 278.3,252 307.6,252 322.2,277.5 307.6,303 	"/>
	<polygon id="XMLID_10_" class="st4" points="102.8,399 88.1,374.5 102.8,350 132,350 146.7,374.5 132,399 	"/>
	<polygon id="XMLID_14_" class="st4" points="200.7,442 186.1,417 200.7,392 229.9,392 244.6,417 229.9,442 	"/>
</g>
<g id="Layer_6">
	<circle id="XMLID_5_" class="st5" cx="250" cy="250" r="236"/>
</g>
</svg>
